<?xml version="1.0" standalone="no"?>
<!DOCTYPE svg PUBLIC "-//W3C//DTD SVG 20010904//EN"
 "http://www.w3.org/TR/2001/REC-SVG-20010904/DTD/svg10.dtd">
<svg version="1.0" xmlns="http://www.w3.org/2000/svg"
 width="300.000000pt" height="300.000000pt" viewBox="0 0 300.000000 300.000000"
 preserveAspectRatio="xMidYMid meet">
<metadata>
Created by potrace 1.14, written by Peter Selinger 2001-2017
</metadata>
<g transform="translate(0.000000,300.000000) scale(0.100000,-0.100000)"
fill="#000000" stroke="none">
<path d="M0 1500 l0 -1500 1500 0 1500 0 0 1500 0 1500 -1500 0 -1500 0 0
-1500z m2027 593 c4 -10 -2 -23 -19 -37 -14 -12 -28 -30 -32 -41 -17 -47 -26
-243 -16 -355 11 -128 30 -197 61 -220 17 -13 18 -18 6 -34 -11 -15 -17 -17
-35 -7 -57 30 -85 153 -86 374 l-1 168 -45 -52 c-108 -125 -729 -874 -726
-876 1 -2 45 7 97 19 126 29 328 32 376 5 18 -9 38 -27 44 -39 10 -18 8 -24
-7 -35 -16 -12 -21 -11 -34 7 -32 42 -142 51 -296 25 -141 -25 -241 -55 -269
-81 -31 -28 -38 -29 -59 -8 -21 20 -21 18 13 53 38 38 45 102 38 324 -5 175
-21 255 -58 281 -17 12 -19 18 -10 35 15 27 27 26 55 -4 49 -52 82 -270 70
-455 -4 -62 -3 -92 3 -85 6 6 66 78 134 160 198 241 415 500 528 634 150 175
148 161 23 133 -129 -28 -331 -36 -372 -13 -36 19 -70 52 -70 67 0 25 38 26
63 0 18 -17 41 -26 83 -32 110 -13 426 47 469 89 21 22 64 22 72 0z"/>
</g>
</svg>
